<?xml version="1.0" standalone="no"?>
<!DOCTYPE svg PUBLIC "-//W3C//DTD SVG 1.1//EN" "http://www.w3.org/Graphics/SVG/1.1/DTD/svg11.dtd" >
<svg xmlns="http://www.w3.org/2000/svg" xmlns:xlink="http://www.w3.org/1999/xlink" version="1.1">
<metadata></metadata>
<defs>
<font id="muchomachoregular" horiz-adv-x="483" >
<font-face units-per-em="1000" ascent="800" descent="-200" />
<missing-glyph horiz-adv-x="500" />
<glyph unicode=" "  horiz-adv-x="500" />
<glyph unicode="&#x09;" horiz-adv-x="500" />
<glyph unicode="&#xa0;" horiz-adv-x="500" />
<glyph unicode="!" horiz-adv-x="432" d="M424 437q0 -156 -80 -367q-22 -59 -38 -59t-189 46q-7 8 -6 25l10 165q2 36 -7 152l-7 93q0 19 10 37q14 26 38 26h119q64 0 103 -26q47 -31 47 -92zM274 -77q0 -34 -30 -54q-26 -18 -62 -18h-23q-24 0 -48 21t-24 45q0 35 41 59q34 20 63 20q22 0 52.5 -25.5t30.5 -47.5 z" />
<glyph unicode="&#x22;" d="M467 473q0 -54 -27 -99q-6 -10 -36 -34q-33 -27 -47 -27q-13 0 -13 11q0 3 7.5 15.5t8.5 14.5q10 23 10 54q0 4 -1 12t-1 12h-29q-20 0 -35.5 11.5t-15.5 30.5q0 79 97 79q35 0 58.5 -22.5t23.5 -57.5zM242 466q0 -45 -28 -97q-33 -61 -80 -61q-13 0 -13 12q0 10 7.5 31 t7.5 31q-1 5 -7 41q2 -1 -26 -1q-21 0 -41 14q-23 15 -23 35q0 47 40 70q33 19 83 19q2 0 50 -23q13 -6 21.5 -29.5t8.5 -41.5z" />
<glyph unicode="#" horiz-adv-x="734" d="M731 23q-16 -4 -47 -12q-45 -14 -45 -29t5 -44.5t5 -44.5q0 -19 -17 -18l-167 7q-22 1 -28 29q-2 9 -3 54q-1 29 -10 29q-5 0 -15.5 -2.5t-15.5 -2.5q-14 0 -33 -5q-2 -1 -2 -7q0 -12 7.5 -41t7.5 -39q0 -17 -11 -19q-5 -1 -110 -11l-110 -9q-6 0 -14 3v131q-3 6 -17 6 q-12 0 -31 -4l-19 -3q-18 0 -39 8q3 13 15 71q4 18 12 20q22 4 96 21q0 2 -5 44q-3 26 -11 32q-12 -1 -40 -6.5t-41 -5.5q-12 0 -12 14q2 15 16 94q36 12 102 37q3 43 3 53v69q0 82 11 106h63q45 -7 90 -19l6 -60q3 -29 11 -45q35 8 101 18q5 4 5 18q0 108 -1 49q0 30 8 50 q2 5 40 9l13 2h33q31 0 58 -6q20 -210 37 -210q7 0 22 4t23 4q3 0 9.5 -1.5t10.5 -1.5q15 -61 15 -78q0 -12 -33 -26q-21 -9 -36 -12l-9 -9q3 -9 6 -67q2 -40 12 -40q50 0 76 -5q0 -66 3 -99zM491 189q0 17 -5 22q-15 3 -47 3q-43 0 -158 -15q-1 -8 -5 -33h213q2 8 2 23z " />
<glyph unicode="$" d="M484 99q0 -54 -72 -106q-62 -45 -105 -50q0 -11 2 -32t2 -32q0 -40 -21 -45q-12 -3 -71 -3q-15 0 -15 37q0 17 4 43l3 27q-55 2 -165 17v13q0 -3 37 72q43 -8 90 -8q7 0 20 -1t20 -1q19 0 57 10q2 1 25 18q-10 39 -67 55q-5 1 -87 20q-90 -7 -90 106q0 80 66 126 q36 25 78 42q6 22 6 75q0 29 -2 68q40 29 79 37q15 -59 15 -96v-50q4 -4 6 -4q8 0 23.5 1t23.5 1q12 0 36.5 -8t24.5 -17q0 -7 -3.5 -26t-3.5 -27q-1 -11 -23 -18q-16 -6 -31 -6q-4 0 -11.5 -1t-11.5 -1q-37 0 -68 -11q-42 -16 -42 -46q0 -26 98 -49q91 -21 118 -36 q55 -30 55 -94z" />
<glyph unicode="%" horiz-adv-x="813" d="M319 364q0 -60 -65 -77q-30 -8 -106 -8q-68 0 -88 14q-25 17 -25 75q0 11 10 111q12 117 23 166q3 13 30 23q22 8 39 8q30 0 82 -5q65 -6 77 -16q9 -7 13 -25q1 -17 3 -28q7 -44 7 -162v-76zM813 42q0 -42 -5 -88q-2 -20 -25 -78q-35 -15 -59 -15q-51 0 -109 12 q-78 16 -76 45q1 14 0 33q-1 24 -2 26l8 213q1 31 24 39q5 2 52.5 7t79.5 5q61 0 83 -16q13 -9 22 -84q7 -59 7 -99zM656 563q-2 -5 -63 -137q-64 -139 -76 -175q-36 -76 -64 -143q-17 -42 -51 -125q-33 -79 -43 -79q-8 0 -135 27q-3 1 -16 20q37 64 93 190q37 84 73 157 q32 65 114 213q11 19 38 67q22 2 72 2q58 0 58 -17zM217 471v20q-35 0 -72 -8q-10 -34 -12 -51q27 -8 49 -8q4 0 12.5 1.5t12.5 1.5q1 4 6 23q4 16 4 21zM704 9q-2 15 -12 45q-40 -10 -60 -17v-25q0 -16 8 -21q22 7 64 18z" />
<glyph unicode="&#x26;" horiz-adv-x="772" d="M782 164q0 -3 -16 -36t-17 -41q-12 -25 -33 -74.5t-20 -71.5q-8 -6 -20 -22q-2 -9 -8 -27q-7 -21 -22 -26q-28 -10 -75 -10h-105q-3 0 -26 20.5t-26 20.5q-10 0 -57.5 -18t-65.5 -18q-3 0 -55 -2l-56 -1q-54 0 -100 29q-51 34 -51 85t46 110.5t95 77.5q-71 93 -71 152 q0 89 74 147q69 55 160 55q5 0 69 -22q3 0 3.5 1.5t3.5 1.5q20 0 48 -49q25 -43 25 -55q0 -75 -85 -166q7 -13 25 -26q25 -16 30 -21q8 8 36 40q23 25 26 25q21 0 48 -8q34 -11 34 -27q0 -13 -16 -41l-26 -46q25 -13 76 -43q12 19 35 56l35 56q82 0 82 -26zM302 350 q-39 -1 -81 0v-31q11 -6 33 -6q38 1 38 0q4 11 10 37zM305 -11q-8 24 -9 25q-8 14 -24 14q-36 0 -112 -11q0 -23 -1 -21q78 -7 70 -7h76z" />
<glyph unicode="'" horiz-adv-x="257" d="M242 466q0 -45 -28 -97q-33 -61 -80 -61q-13 0 -13 12q0 10 7.5 31t7.5 31q-1 5 -7 41q2 -1 -26 -1q-21 0 -41 14q-23 15 -23 35q0 47 40 70q33 19 83 19q2 0 50 -23q13 -6 21.5 -29.5t8.5 -41.5z" />
<glyph unicode="(" horiz-adv-x="319" d="M329 -101q0 -2 -1 -5t-1 -4q-6 -1 -27.5 -15t-27.5 -14q-15 0 -57 51q-117 142 -137 174q-44 72 -44 164q0 89 44 200q38 96 98 182q11 17 33 50q30 43 42 43t30 -6q22 -7 22 -16q0 -2 -26 -48q-30 -53 -39 -72q-23 -50 -49 -134q-34 -109 -34 -168q0 -143 69 -247 q22 -33 67 -88q19 -23 38 -47z" />
<glyph unicode=")" horiz-adv-x="336" d="M34 -101q0 -6 5 -9q43 -29 52 -29q15 0 57 51q117 142 137 174q44 72 44 164q0 175 -142 382q-11 17 -33 50q-30 43 -41 43q-12 0 -30 -6q-22 -7 -22 -16q0 -3 25 -48q33 -58 39 -72q23 -50 49 -134q34 -109 34 -168q0 -143 -69 -247q-22 -33 -67 -88q-19 -23 -38 -47z " />
<glyph unicode="*" horiz-adv-x="766" d="M779 361q-5 -31 -30 -69q-15 -22 -64 -70q-41 -40 -41 -50q0 -38 20.5 -107t20.5 -83q0 -7 -5.5 -16t-11.5 -9q-3 0 -16 12q-20 5 -73 20q-58 18 -94 39l-21 12q57 0 -75.5 -65.5t-153.5 -65.5q-15 0 -15 30q0 29 25 182q-3 1 -110 55q-82 41 -82 48q0 9 55 59 q27 24 86 58q11 5 30.5 14.5t26.5 20.5q4 6 45 103q34 81 49 81q21 0 79 -81q41 -57 64 -98q15 0 117 -1l99 -1q27 0 75 -18z" />
<glyph unicode="+" horiz-adv-x="632" d="M637 179q3 -42 -14 -42q-2 0 -6.5 1t-6.5 1q-6 -1 -36 -4t-62 -6q-37 -3 -61 -14q-5 -15 -6 -31l-4 -96q-1 -16 -6 -30q-69 -23 -155 -56q-4 0 -9 20t-5 27v60q0 26 -4 75q-3 3 -1 68q-4 9 -29 10h-44t-86.5 1.5t-57.5 35.5q0 15 10 61q12 56 25 56q3 0 3 -2.5t3 -2.5 q8 0 24.5 2.5t23.5 2.5t20.5 2t19.5 2h101q8 17 20 96q0 20 9 59q4 7 44 18q104 28 97 28q6 0 11 -3q-2 -70 -12 -218q52 -9 80 -9q8 0 24.5 1.5t25.5 1.5q12 0 56 -5z" />
<glyph unicode="," horiz-adv-x="325" d="M303 8q0 -29 -28 -74q-4 -7 -33.5 -30.5t-34.5 -23.5q-3 0 -6 1l-4 2q-6 14 -6 27q0 7 4 22q5 19 6 23q-31 0 -62 16q-37 19 -37 47q0 36 31 62.5t68 26.5q39 0 70.5 -30t31.5 -69z" />
<glyph unicode="-" horiz-adv-x="563" d="M535 225q0 -13 -18 -13l-322 -8q-2 0 -53 2l-54 1q-6 0 -16.5 4.5t-10.5 9.5q0 6 6 44q4 27 11 67q13 0 42 2l29 1l30 5q30 4 44 4q36 0 108 2l67 1q17 0 69 -6.5t65 -10.5q0 -22 1 -52z" />
<glyph unicode="&#x2010;" horiz-adv-x="563" d="M535 225q0 -13 -18 -13l-322 -8q-2 0 -53 2l-54 1q-6 0 -16.5 4.5t-10.5 9.5q0 6 6 44q4 27 11 67q13 0 42 2l29 1l30 5q30 4 44 4q36 0 108 2l67 1q17 0 69 -6.5t65 -10.5q0 -22 1 -52z" />
<glyph unicode="." horiz-adv-x="340" d="M315 21q0 -44 -25.5 -68.5t-69.5 -24.5q-48 0 -81.5 28t-33.5 75q0 25 25 47.5t50 24.5q5 14 19 14q34 0 75 -31.5t41 -64.5z" />
<glyph unicode="/" horiz-adv-x="377" d="M404 663q0 -10 -45 -192l-52 -212q-19 -93 -59 -264q-10 -44 -21 -86q-12 -24 -64 -24h-31q-26 0 -33 8q65 214 103 370l78 330q2 23 16 66q1 1 32 6l57 9q19 0 19 -11z" />
<glyph unicode="0" horiz-adv-x="644" d="M629 83q0 -73 -63.5 -146.5t-135.5 -79.5q-3 0 -12 -4.5t-11.5 -4.5t-38.5 -2l-40 -2q-110 0 -198 75q-91 79 -91 187q0 84 102 187q25 26 103 50q72 23 114 23q123 0 197 -80t74 -203zM467 76h-157q-8 0 -26 3.5t-26 3.5h-62v-58h81q21 0 56 -2q42 -3 56 -3l70 -2 q8 30 8 58z" />
<glyph unicode="1" horiz-adv-x="454" d="M433 -29q0 -2 -4 -62q-3 -44 -14 -44q-2 0 -8 2.5t-9 2.5q-4 0 -11 -1t-10.5 -1t-32.5 -2l-33 -1l-173 -14q-2 0 -16 8q-5 49 -13 190l-7 137v152q-7 7 -8 7q-6 0 -18 -4t-18 -4q-7 0 -15 40q-6 32 -7 50q23 12 108 24q78 12 114 12q17 0 65 -12q52 -14 58 -23 q24 -36 37 -123q10 -69 10 -143v-61q0 -7 5 -22v-108z" />
<glyph unicode="2" horiz-adv-x="636" d="M632 7l-1 -33q-2 -33 -2 -49q0 -7 -8 -13q-6 0 -50 -11l-44 -11q-34 0 -94 -8q-66 -8 -93 -9q-12 -1 -74 -8l-68 -7q-6 0 -17.5 -2.5t-16.5 -2.5t-15 -1t-15.5 -1t-18.5 -1.5t-17.5 -1.5t-12 -2t-10.5 -2q-17 0 -17 13q0 4 14 20q-4 33 -4 66q0 132 53 232 q58 108 172 161q-5 30 -8 30q-2 0 -7 -1t-8 -1q-63 0 -162 -18q-4 -1 -19.5 -6t-19.5 -5q-13 0 -13 17q0 23 5 72q1 10 37 20q24 12 171 35q71 11 84 11h141q55 0 90.5 -33t35.5 -87q0 -52 -38 -85q-46 -37 -134.5 -113.5t-101.5 -146.5q27 -3 73 5q52 10 72 10h59 q6 0 19.5 2.5t19.5 2.5q27 0 35.5 -6t7.5 -32z" />
<glyph unicode="3" horiz-adv-x="560" d="M550 86q0 -78 -58 -133q-52 -50 -132 -67q-139 -30 -155 -30q-3 0 -47 -3l-48 -2q-30 0 -30 11q0 71 8 92q3 9 131 41q56 8 96 32v21q-1 12 -10 19q-29 3 -57 4l-177 5q-17 0 -22 5q-13 98 -13 125v84q0 25 8 29q16 8 42 12q37 5 43 7q30 8 75 13q55 6 69 9q2 9 -6 15 q-21 1 -157 4q-28 1 -47 10v81q5 4 17 13q7 -3 18 -3q20 0 57.5 7t53.5 8q45 3 74 5q24 2 18 2q63 0 122 -26q78 -34 78 -95q0 -74 -104 -135q63 -3 108 -50t45 -110z" />
<glyph unicode="4" horiz-adv-x="675" d="M670 71q1 -14 -1 -47t-2 -47q-16 -7 -54.5 -14.5t-52.5 -14.5q0 -34 -1 -68q-2 -12 -46 -12q-6 0 -19.5 -2.5t-19.5 -2.5h-32q-10 0 -29 1h-20q-5 0 -14.5 -3t-12.5 -3q-59 -2 -70 -2q-5 13 -10 47q-4 31 -12 47q-11 0 -38 -3l-29 -2l-148 5q-4 17 6 110l10 100v67 q0 30 15 146q-1 6 -2 20q65 30 183 24q89 4 126 6q70 5 125 14q9 9 15 9q13 0 25 -118q2 -81 15 -240q11 -6 46.5 -8t46.5 -9zM411 118v40h-66l-146 -10v-28h109q-4 0 41 -2q42 -2 62 0z" />
<glyph unicode="5" horiz-adv-x="666" d="M658 103q0 -240 -335 -240q-4 0 -13.5 -2.5t-12.5 -2.5q-246 0 -246 28q0 11 20 65q12 6 22 6q4 0 12 -1t12 -1l199 19q9 0 49.5 10.5t48.5 15.5q1 16 -3 28q-1 3 -34 6t-42 3l-210 -12q-17 -1 -27 11q2 26 0 36q-1 3 -4 65l-9 165v68q0 84 32 84q8 0 23 -1.5t23 -1.5 q10 0 32.5 3.5t32.5 3.5l217 -2q16 0 55 -12q16 -54 16 -58q0 -16 -13 -19q-90 -20 -116 -20q-49 0 -61 -2q-31 -5 -31 -31q0 -2 1 -5.5t1 -5.5q22 3 58 3q116 0 196 -39q107 -52 107 -164z" />
<glyph unicode="6" horiz-adv-x="631" d="M625 167q0 -199 -195 -293q-48 -23 -73 -23q-9 0 -28 -1.5t-28 -1.5q-30 0 -102 31q-153 66 -153 235q0 102 80 211q87 118 197 134q6 1 24.5 6.5t24.5 5.5t32.5 -28t26.5 -35q0 -11 -64 -44q-75 -39 -93 -59q15 -16 21 -16q-34 0 42.5 19.5t99.5 19.5q78 0 130 -41 q58 -44 58 -120zM479 102h-129l-126 1q-28 0 -28 -41v-10q57 -17 131 -20l130 -4q14 41 22 74z" />
<glyph unicode="7" horiz-adv-x="499" d="M482 410q0 -106 -25 -265l-46 -291q-3 -2 -22 -6t-23 -4l-222 2q-3 0 -8.5 1t-9 1t-17.5 13q10 34 150 468q-1 1 -16 1q-3 0 -43 2l-44 1q-5 0 -15.5 -1.5t-15.5 -1.5q-64 0 -64 22q0 104 48 104l120 -6q135 -7 243 -11q1 -3 5.5 -14.5t4.5 -14.5z" />
<glyph unicode="8" horiz-adv-x="635" d="M627 81q0 -10 -19 -70q-26 -83 -122 -124q-72 -31 -151 -31q-2 0 -34 1l-36 1q-61 0 -139 43q-97 53 -97 125q0 45 47 104q41 52 86 80q-50 29 -69 49q-32 33 -32 76q0 75 97 118q72 32 140 32q164 0 216 -75q4 -3 13 -9q10 -44 10 -47q0 -81 -70 -122q79 -21 112 -46 q48 -36 48 -105zM375 332l-128 15q-55 0 -55 -19q0 -4 2 -10l139 -19h32q3 6 10 33zM419 44l-137 10q-11 1 -32 -2q-25 -3 -34 -3q-17 0 -29 4v-47h214q6 0 12 16z" />
<glyph unicode="9" horiz-adv-x="618" d="M29 151q0 199 195 293q48 23 73 23q9 0 28 1.5t28 1.5q30 0 102 -31q153 -66 153 -235q0 -102 -80 -211q-87 -118 -197 -134q-6 -1 -24.5 -6.5t-24.5 -5.5t-32.5 28t-26.5 35q0 11 64 44q75 39 93 59q-15 16 -21 16q34 0 -42.5 -19.5t-99.5 -19.5q-78 0 -130 41 q-58 44 -58 120zM175 216h129l126 -1q28 0 28 41v10q-57 17 -131 20q-43 1 -130 4q-14 -41 -22 -74z" />
<glyph unicode=":" horiz-adv-x="326" d="M315 21q0 -44 -25.5 -68.5t-69.5 -24.5q-48 0 -81.5 28t-33.5 75q0 25 25 47.5t50 24.5q5 14 19 14q34 0 75 -31.5t41 -64.5zM301 313q0 -44 -25.5 -68.5t-69.5 -24.5q-48 0 -81.5 28t-33.5 75q0 25 25 47.5t50 24.5q5 14 19 14q34 0 75 -31.5t41 -64.5z" />
<glyph unicode=";" horiz-adv-x="327" d="M310 259q0 -93 -96 -93q-47 0 -81 28t-34 74q0 25 25.5 47.5t50.5 24.5q5 14 19 14q32 0 72 -29q44 -32 44 -66zM303 8q0 -29 -28 -74q-4 -7 -33.5 -30.5t-34.5 -23.5q-3 0 -6 1l-4 2q-6 14 -6 27q0 7 4 22q5 19 6 23q-31 0 -62 16q-37 19 -37 47q0 36 31 62.5t68 26.5 q39 0 70.5 -30t31.5 -69z" />
<glyph unicode="&#x3c;" horiz-adv-x="420" d="M428 -72q-2 -10 -7 -23q-6 -6 -72 -27.5t-77 -21.5q-95 0 -169 113q-67 105 -67 215q8 12 46 75l87 148q30 50 61 94q2 2 63 9t73 7q17 0 17 -15t-92 -154t-92 -153q0 -24 133 -168q17 -20 53 -60t43 -39z" />
<glyph unicode="=" horiz-adv-x="553" d="M525 439q0 -10 -15 -108q-72 -23 -79 -23q-2 0 -5.5 1.5t-5.5 1.5q-22 0 -67 -13.5t-67 -13.5l-201 -19l-6 -5q-15 6 -17 31q0 15 -1 43q-5 90 -5 76q0 18 17 17l15 -1q15 -1 17 -1q93 0 120 6q33 7 95 9q14 0 43.5 4.5t44.5 4.5l10 10q11 9 19 9q22 0 49 -6 q39 -9 39 -23zM545 93q-3 -2 -8 -7q-217 -29 -265 -29h-117q-54 0 -68 7q0 -4 8 142q14 8 19 8l22 -12l129 14q32 0 50 3l7 -3l6 5q29 0 88 3l56 2q7 0 22 1t22 1q13 0 20 -10q4 -40 9 -125z" />
<glyph unicode="&#x3e;" horiz-adv-x="434" d="M36 -72q2 -10 8 -23q4 -5 70.5 -27t77.5 -22q95 0 169 113q67 105 67 215q-8 13 -45 75q-40 68 -87 148q-29 48 -62 94q-2 2 -66 9t-69 7q-17 0 -17 -15t92 -154t92 -153q0 -25 -133 -168q-16 -17 -52.5 -58.5t-44.5 -40.5z" />
<glyph unicode="?" horiz-adv-x="607" d="M615 336q0 -122 -185 -172q-62 -17 -64 -19q0 -19 13 -61.5t13 -61.5t-32 -19q40 0 -13 -1h-127q-83 -1 -115 -1q-45 0 -47 19l27 152q0 1 16 63q9 35 25 67q71 11 201 28v30q-12 7 -48 7h-168q-14 5 -14 14q0 3 5 27l8 39q124 38 247 38q258 0 258 -149zM315 -108 q0 -24 -34 -43q-27 -15 -44 -15q-21 0 -44.5 19t-23.5 40q0 26 23 45t50 19q20 0 46.5 -22.5t26.5 -42.5z" />
<glyph unicode="A" horiz-adv-x="662" d="M661 -51q0 -4 -4.5 -12.5t-8.5 -8.5q-18 -3 -61.5 -24t-44.5 -21q-11 0 -23 43q-9 32 -10 45h-38l-104 -16q-7 0 -21 -1.5t-21 -1.5h-74q-5 -27 -15 -65q-4 -14 -63 -14q-3 0 -43 3l-44 4q-6 0 -18 -3.5t-18 -3.5q-3 0 -23 17q5 50 22 142q17 96 22 142q24 213 75 308 q63 118 192 118q124 0 211 -268q17 -57 54 -170q22 -65 38 -126q20 -78 20 -87zM452 181q-52 7 -73 7q-97 0 -204 -25q-2 -11 -2 -22t2 -22q49 1 146 3q78 1 131 -3v62z" />
<glyph unicode="B" horiz-adv-x="614" d="M600 345q0 -67 -23 -130q-25 -69 -71 -111q13 -7 36 -28q15 -19 15 -57q0 -23 -10 -43q-5 -8 -27 -41q-36 -54 -58 -67q-17 -10 -72.5 -21.5t-78.5 -11.5q-5 0 -48 -3q-38 -3 -42 -2h-146l-7 158v128q0 9 2.5 26t2.5 26v178q0 84 2 127q2 2 2 34t-2 94q40 5 90 5 q165 0 282 -52q153 -68 153 -209zM366 150q4 14 4 26t-4 21l-111 19q-54 0 -85 6q-5 -14 -5 -20q0 -15 85 -35q74 -17 90 -17h26zM381 23l-17 4q-70 -7 -168 -7v-74h11q-6 0 163 22q5 8 11 55zM93 83h-4l-3 -14h4z" />
<glyph unicode="C" horiz-adv-x="588" d="M566 -88q0 -34 -4 -45q-8 -17 -34 -24q-14 -2 -28 -5q-47 -15 -155 -15q-59 0 -150 59q-99 64 -131 134q-22 49 -28 76q-7 33 -7 169q0 84 66 180q69 101 148 120q98 24 140 24q29 0 93 -13q74 -15 80 -29q0 -13 3 -40t3 -39q0 -76 -16 -209q-15 -7 -34 -7h-189 q-83 0 -122 -5q-25 -3 -49 -7q-2 -29 7 -60l260 19q3 0 20 -1q13 -1 27 0q56 3 82 -14q12 -71 16 -157q2 -44 2 -111z" />
<glyph unicode="D" horiz-adv-x="666" d="M656 150q0 -197 -136 -296q-105 -77 -251 -77q-35 0 -102 14q-72 14 -96 29q-2 46 -8 143l-27 423v104q0 49 18 49q602 0 602 -389zM472 161q-173 12 -297 19q-2 -14 -2 -34q0 -19 2 -44l243 -38q15 0 53 -6q-3 19 -1 50q3 39 2 53z" />
<glyph unicode="E" horiz-adv-x="619" d="M608 488q0 -126 -6 -196q-1 -11 -22 -11l-233 29l-82 3q-49 2 -105 -12q1 -10 6 -32q6 0 18 -1.5t18 -1.5q40 0 270 -7v-8q1 -8 2 -27v-65q-6 -5 -20 -10l-224 -2q-33 -7 -66 -13q-1 -1 -1 -3t2 -5t7.5 -4.5t56.5 -4.5l72 -6q43 -4 72 -1q39 3 108 0q71 -4 97 -9 q0 -3 1.5 -9.5t1.5 -9.5q0 -33 -40 -322q0 -4 -5.5 -10.5t-8.5 -6.5q-13 0 -66 15q-59 17 -75 19q-362 52 -362 401q0 141 79 244t215 131q5 1 37 10q27 8 34 8h145q46 0 60 -18t14 -65z" />
<glyph unicode="F" horiz-adv-x="583" d="M586 303q-9 -10 -22 -10q46 0 -19 6q-57 5 -151 10q-97 6 -127 6h-67q-35 0 -40 -8q0 -25 6 -71q45 9 142 17q103 9 156 15q8 -11 8 -17q0 -5 -4.5 -20t-4.5 -22l-8 -120q-23 -11 -74 -14q-58 -5 -80 -11l82 -240q-6 -19 -37 -19h-265q-33 0 -40 14v148q0 -1 5 63 q3 33 6 92q6 106 15 167q15 105 48 179q26 60 133 110q30 14 138 29q94 13 126 13q10 0 39 -11q11 -58 20 -152z" />
<glyph unicode="G" horiz-adv-x="629" d="M644 -164l-49 -56q-50 -56 -58 -68h-14q-5 11 -30 93q-15 49 -23 49l-117 -22q-17 3 -66 3q-102 0 -175 67q-85 79 -85 218q0 188 105 354q120 189 298 189q33 0 89 -8q74 -10 74 -27q0 -4 -6 -103l-6 -103q0 -4 5 -74l5 -74q0 2 -8 -14h-153q-3 0 -63 -5l-63 -5 q-97 0 -142 -18v-36l355 -15q12 -1 31 -5q24 -6 25 -12q10 -41 36 -152q35 -147 35 -176z" />
<glyph unicode="H" horiz-adv-x="732" d="M709 -13q0 -158 -25 -188q-5 0 -14 -2t-14.5 -2t-20.5 -3t-21 -3l-253 -9q-22 -1 -28 34q-5 25 -3 71q4 65 4 54v84q-3 5 -16 5l-126 -19l-4 -2q6 -78 6 -135q0 -61 -18 -73q-10 -7 -71 -7h-49q-17 128 -17 273v431q10 6 78 20q65 13 71 13q20 0 29 -94q13 -130 15 -138 q58 23 166 64q16 3 33.5 7.5t25.5 14.5q4 20 4 48v25q-1 33 -1 24q0 64 47 64q201 0 195 -58q-11 -109 -11 -221q0 -118 14 -240q4 -35 4 -38z" />
<glyph unicode="I" horiz-adv-x="441" d="M426 613q0 -89 -117 -258q-68 -98 -86 -98q-3 0 -14 12q-14 14 -17 16q-46 27 -106 106q-67 88 -67 142v69q0 46 28 99q32 60 72 60q39 0 69 -35q14 -17 43 -69q15 23 40 44q31 25 52 25q36 0 65 -25q38 -32 38 -88zM445 -270q0 -17 -17 -17q-3 0 -52 4l-53 5l-158 13 q-93 8 -124 22l21 325q9 135 23 135q25 -13 32 -13l158 -3q12 0 36.5 3t35.5 3q3 0 10 1.5t10 1.5q31 0 47 -7q31 -341 31 -473z" />
<glyph unicode="J" horiz-adv-x="594" d="M576 50q0 -42 -8 -95q-6 -38 -52 -96q-49 -62 -83 -62q-3 0 -12.5 -3.5t-13.5 -3.5t-13.5 -1.5t-13.5 -1.5l-226 10q-4 0 -38 8q-49 11 -69 15q-13 32 -11 84l8 214q1 37 9 45t43 8h215q11 0 67 7q12 36 11 113t11 111q40 21 139 21q14 0 18 -75q1 -43 6 -128 q13 -159 13 -170z" />
<glyph unicode="K" horiz-adv-x="650" d="M646 -168l-168 -35q-9 9 -10 58q0 43 -14 43q-130 0 -280 -18q0 -13 3 -40l2 -28v-30q-33 1 -64 -2q-5 0 -17 -4t-16 -4q-21 0 -21 19q0 11 9 24q-8 12 -10 44l-4 66l-3 421q-1 71 -9 149q5 7 9 7q3 0 6.5 -3t5.5 -3q12 3 75 19q16 -30 23 -90q3 -33 11 -99h59q6 0 95 14 l91 14q0 29 1.5 86.5t1.5 86.5q22 13 27 14q17 9 39 10q43 23 75 30q6 -6 12 -20q16 -95 16 -180q0 -45 -34 -105q-27 -49 -66 -90q62 -21 108.5 -91.5t46.5 -137.5v-125z" />
<glyph unicode="L" horiz-adv-x="575" d="M583 -110q-3 -5 -44 -19q-49 -17 -80 -17l-371 -59h-38v660q5 3 37 9.5t41 6.5q-3 0 30 -4q6 -9 7 -57q0 -27 1 -82q1 -32 -4 -81v-22q4 -6 6 -6q-56 0 32 17q71 14 195 33q118 17 137 17q11 0 17 -1q11 -86 18 -187z" />
<glyph unicode="M" horiz-adv-x="818" d="M801 82q0 -31 -3 -92.5t-3 -92.5q0 -47 -2 -62q-6 -44 -28 -44q-91 4 -116 4q-7 16 -4 48q1 9 -1 112l-2 109v90q0 49 -6 88q-2 2 -13 2q-38 -2 -47 -2q3 -73 12 -257l8 -159q0 -6 -5.5 -14t-11.5 -8t-19.5 -1.5t-20.5 -1.5q-3 0 -142 -11l-142 -11q-16 0 -27 4l-15 300 v90q0 35 -7 67q-19 -2 -31 -11q-2 -70 1 -111l3 -38v-105q0 -87 -6 -135q-3 -27 -27 -27q-18 0 -53 6.5t-51 6.5q8 248 70 619q2 14 14 12q61 43 78 53q37 21 71 21q61 0 105 -81q23 -41 50 -133q16 77 58 128q50 61 121 61q192 0 192 -342v-82z" />
<glyph unicode="N" horiz-adv-x="684" d="M666 38q4 -81 -12 -145q-22 -93 -91 -119q-54 -21 -68 -25q-32 -8 -74 -8q-66 0 -111 40q-33 30 -69 100q-28 54 -41 123l-20 128q-1 7 -3 49q-1 28 -11 41q-10 -9 -9 -20l20 -293q0 -3 -1.5 -10t-1.5 -10q-8 -1 -56 -13.5t-50 -12.5q-3 0 -5 2t-5 2q-1 22 -8 88 q-6 56 -6 89q0 208 35 312q58 171 219 171q116 0 178 -171q45 -125 44 -264q-1 -94 7 -131q30 0 35 8q4 5 4 38q-1 17 -3 52l-6 86q-3 67 -13 148l-19 152q29 12 83 36q3 1 12.5 8t12.5 7h13z" />
<glyph unicode="O" horiz-adv-x="691" d="M680 146q0 -148 -70 -249q-80 -115 -221 -115q-3 0 -38 1l-39 2q-45 0 -122.5 45.5t-106.5 84.5q-44 59 -44 162q0 107 42 213q52 131 140 154q25 7 83 23q5 1 25 8q17 6 21 6q128 0 218 -72q112 -90 112 -263zM530 150q-76 23 -265 23q-76 0 -116 -1v-95l373 -8 q5 38 8 81z" />
<glyph unicode="P" horiz-adv-x="687" d="M685 294q0 -100 -48 -184q-48 -87 -134 -135q-19 -16 -58 -39q-66 -25 -139 -38l-106 -19q-7 -48 -7 -90q-10 -11 -16 -11q-8 0 -23.5 3t-23.5 3q-25 0 -62 -6q-24 374 -30 583q0 16 -6 73l-5 52q0 49 152 76q103 18 177 18q122 0 205 -49q124 -73 124 -237zM518 243 q-16 9 -46 8q-57 -2 -55 -2h-267v-71l362 -4q0 32 6 69z" />
<glyph unicode="Q" horiz-adv-x="692" d="M680 192q0 -140 -61 -237q-70 -112 -201 -125q1 -4 3 -165q7 -6 68 -34q4 25 4 147q0 8 7 15.5t15 7.5q6 0 45 -14q45 -16 68 -28q8 -4 8 -24q0 -19 -9 -91q-8 -66 -11 -78q-10 -26 -23 -66q-8 -25 -42 -47.5t-61 -22.5q-80 0 -128 38q-52 41 -62 99q-8 48 -13 200 q-8 3 -7 70q-48 14 -107 50q-63 38 -90 74q-44 59 -44 162q0 107 42 213q52 131 140 154q25 7 83 23q5 1 25 8q17 6 21 6q128 0 218 -72q112 -90 112 -263zM530 196q-76 23 -265 23q-76 0 -116 -1v-95l373 -8q5 38 8 81z" />
<glyph unicode="R" horiz-adv-x="639" d="M629 357q0 -71 -37.5 -137.5t-97.5 -107.5q68 -31 89 -74q15 -31 15 -104q0 -51 -7 -77q-2 -12 -3 -23q-4 -16 -10 -19q-37 -13 -108 -13q-17 0 -17 47t-2 98l-122 -8q-71 -5 -119 -23q10 -60 10 -89q0 -22 -14 -22q-3 0 -3.5 1.5t-3.5 1.5q29 0 -39.5 -17t-85.5 -17 q-21 0 -21 33v217l-5 160v91q0 25 1.5 75t1.5 75q0 36 -6 45q-4 5 -4 10q0 13 64 35q26 9 81 19t82 11l142 3q40 1 106 -28q63 -28 87 -61q26 -36 26 -102zM484 292l-249 4q-39 1 -82 -10q-2 -23 -7 -65q56 -3 112 6q21 3 23 3q9 0 28.5 -1.5t28.5 -1.5t138 20q3 16 8 45z " />
<glyph unicode="S" horiz-adv-x="697" d="M690 131q-2 -16 -12 -92q-35 -275 -348 -275q-2 0 -71 -2l-71 -1q-11 0 -53 6q-46 6 -50 10q9 27 23 77q1 15 4 44l38 8q27 5 44 6l190 6q40 1 74 20q7 3 7 32q0 11 -16 11q-3 0 -58 -3l-59 -3q-3 0 -50 3l-51 3q-93 0 -145 64q-47 59 -47 155q0 65 8 101q17 77 40 116 q31 55 90 81q29 10 88 29q74 24 105 24q15 0 11 -2q2 1 3 -2q1 -6 3 -9q1 1 14 9q10 7 13 7q11 0 33.5 -3t33.5 -3q4 0 13 1.5t14 1.5t17 1.5t18 1.5t18.5 3t18.5 3q4 -1 7 -3q8 -4 8 -14q0 -4 2 -55l1 -58q0 -15 -42 -22q-29 -5 -49 -5q13 0 -16 -1.5t-34 -1.5 q-6 -15 -8 -16q-3 0 -10 3t-9 3q-3 0 -15.5 -6t-15.5 -6q10 0 -10 8t-28 8q-34 0 -82 -16q2 -30 9 -30q1 0 5 1t6 1q9 0 28 3t28 3h92l7 6q118 -29 163 -62q73 -54 73 -169z" />
<glyph unicode="T" horiz-adv-x="608" d="M605 364q0 -10 -10 -14q-47 -13 -122 -13q-10 0 -23 -5q3 -26 32 -248q26 -198 26 -211q0 -16 -72 -30q-57 -11 -101 -12q-34 -1 -108 -10q-70 -9 -107 -9q-14 0 -13 18l31 482q1 22 -50 22q14 0 -17.5 -1.5t-41.5 -1.5q0 2 -1 7t-1 7q0 3 7 55q8 57 13 72q18 -3 70 -3 q49 0 145.5 9.5t144.5 9.5q16 0 47.5 -4.5t47.5 -4.5l12 3q10 0 45 -9q42 -11 46 -21v-88z" />
<glyph unicode="U" horiz-adv-x="620" d="M605 132q0 -335 -187 -335q-11 0 -33 -3t-33 -3q-111 0 -187 45q-114 68 -114 224v91q0 38 9 155q12 152 24 152q2 0 8 -6t9 -7q145 -16 206 -16h80v-373q0 8 -1 -34v-31q1 -17 6 -43q23 0 32 1q21 2 29 17v185q0 22 -7 125q-8 112 -13 150q15 16 29 16q12 0 43 -6 q44 -8 68 -20q10 -4 13 -60q1 -10 7 -58t6 -65q-1 -24 3 -60z" />
<glyph unicode="V" horiz-adv-x="678" d="M695 402q-1 10 -37 -129l-54 -222q-39 -158 -84 -280q-12 6 -16 19q-15 -6 -46 -6q-24 0 -27 4q-18 28 -86 129q-92 133 -323 472v20q11 7 18 7l185 3q13 0 50.5 11t54.5 11q12 0 76 -100q76 -119 108 -155q16 34 32 111t28 105q12 5 49.5 14.5t43.5 8.5h28v-23z" />
<glyph unicode="W" horiz-adv-x="845" d="M833 87q0 -126 -36 -208q-49 -113 -158 -113q-63 0 -116 46q-49 42 -71 105q-12 -71 -54 -116q-46 -51 -114 -51q-7 0 -25.5 3t-26.5 3q-47 0 -108 74q-55 66 -67.5 119.5t-15.5 106.5q-2 38 -5 83l-7 270q-1 48 1 56q4 15 26 19q6 1 86 5q14 -65 21 -225l13 -263l72 2 q17 6 13 65l-26 425q-1 15 5 27l149 14h77q9 0 29 3t29 3q3 0 9.5 -3.5t8.5 -3.5q14 -83 23 -246l16 -289q2 -3 61 -3q9 30 9 62v97q0 215 11 353q1 8 34 11q10 1 35 7t33 6q13 0 28 -62q10 -41 13 -63q28 -211 28 -319z" />
<glyph unicode="X" horiz-adv-x="778" d="M787 -134q-5 -16 -13 -17q-80 -19 -200 -36l-137 -19q-8 0 -15 7q-13 13 -39 48q-23 30 -26 30t-54.5 -50t-54.5 -50q-2 0 -14 5.5t-17 5.5q-120 11 -129 11q0 1 -1.5 5t-1.5 7q0 4 60 75l107 125q-15 29 -62 93q-53 74 -68 98q-18 30 -48 94q-34 74 -50 102q6 18 17 18 q5 0 17.5 -3.5t17.5 -3.5q3 2 14 15q9 0 26 3.5t26 3.5h152q6 0 20.5 3.5t20.5 3.5q9 0 78 -79q50 -57 82 -98l181 177q9 0 26 3t25 3q26 0 40 -4q0 -2 1.5 -7t1.5 -7l-177 -286z" />
<glyph unicode="Y" horiz-adv-x="757" d="M741 147q0 -17 -5 -50q-5 -37 -6 -52q-4 -84 -65 -118q-20 -11 -109 -32q-4 -12 -4 -49q0 -33 -6 -44q-45 -1 -162 -8l-114 -6q-13 0 -13 18q0 -17 14 106q-3 5 -11 5h-113q-11 0 -37 15q-57 33 -61 117q0 47 -2 140q-1 20 1 86q1 55 -9 76l7 5q7 4 11 4q43 4 117 4 q39 0 48 -9q6 -8 8 -42q4 -50 16 -94l304 38q10 -1 61 -6q3 22 -1 67q-4 40 3 53q11 22 52 22q5 0 16 -2t16 -2q25 -1 30 -39q3 -18 5 -53q9 -126 9 -150z" />
<glyph unicode="Z" horiz-adv-x="613" d="M598 -41q1 -28 -7 -102q-2 -19 1 -63q-5 -9 -26 -8l-399 13q-4 0 -13 2.5t-13 2.5q-117 16 -117 31q0 17 71 148q68 126 90 155q18 22 53 68q27 36 45 79q-7 3 -29 3q-25 0 -75.5 -5.5t-75.5 -5.5q-7 5 -6 46l1 53q0 2 -5.5 11t-5.5 15q0 15 11 16q295 32 347 32l111 -12 q26 0 37 -17q-9 -32 -32 -114q-36 -122 -65 -195l-55 -141q6 -5 21 -5q3 0 44 3l44 3q31 0 48 -13z" />
<glyph unicode="[" horiz-adv-x="215" d="M230 581q0 -6 -36 -15q-41 -11 -46 -15v-307q0 -20 2 -59t2 -59q0 -23 3 -81l5 -95q26 -3 64 -15q0 -11 1.5 -34t1.5 -35q-5 -3 -47 -9t-53 -6h-31q-12 0 -22 8q-23 212 -25 378q0 13 -5 134l-5 141q0 -5 12 98q1 6 8 34q55 1 70 3q16 8 27 8q33 0 45 -4q22 -7 27 -32 q2 -11 2 -38z" />
<glyph unicode="]" horiz-adv-x="252" d="M39 581q0 -6 35 -15q21 -5 47 -15v-307q0 -20 -2 -59t-2 -59q0 -26 -3 -81q-5 -85 -5 -95q-26 -3 -64 -15q-4 -36 -4 -69q5 -3 47 -9t54 -6h31q12 0 21 8q9 72 15 141q8 93 11 237q0 19 5 134l5 141q0 -13 -13 98q-2 13 -7 34q-55 1 -71 3q-8 8 -26 8q-33 0 -45 -4 q-22 -7 -27 -32q-2 -11 -2 -38z" />
<glyph unicode="^" horiz-adv-x="472" d="M467 342q0 -3 -33 -39t-38 -36q-10 0 -131 95q-17 0 -121 -95q-11 8 -35 32q-27 28 -27 36t80.5 104.5t91.5 96.5q12 0 48 -25q14 -10 89.5 -87t75.5 -82z" />
<glyph unicode="`" horiz-adv-x="303" d="M44 574q60 -85 177 -275h17q34 52 36 53q0 -6 -38 108q-8 38 -13 55q-11 39 -22 49q-25 3 -81 12q-51 8 -54 8q-6 0 -22 -10z" />
<glyph unicode="a" horiz-adv-x="664" d="M661 15q0 -12 -13 -16q-17 -2 -59 -18t-47 -16q-11 0 -23 33q-9 25 -10 35h-38l-104 -13q-7 0 -21 -1t-21 -1h-74q-5 -20 -15 -50q-4 -11 -63 -11q-3 0 -43 2l-44 3q-5 0 -18 -2.5t-18 -2.5q-3 0 -23 13q5 39 22 111.5t22 107.5q24 163 75 236q64 92 192 92 q123 0 211 -207q32 -76 54 -131q12 -26 38 -96q20 -60 20 -68zM452 194q-52 5 -73 5q-97 0 -204 -19q-2 -9 -2 -17t2 -17l277 1v47z" />
<glyph unicode="b" horiz-adv-x="599" d="M600 316q0 -118 -94 -186q13 -5 36 -21q15 -15 15 -44q0 -18 -10 -33q-5 -6 -27 -32q-35 -41 -58 -52q-15 -7 -74 -16q-55 -9 -77 -9q-2 0 -44 -2l-46 -2h-146l-7 122v99q0 6 2.5 19.5t2.5 19.5v138q0 64 2 97q2 2 2 26t-2 72q40 4 90 4q168 0 282 -39q153 -52 153 -161z M366 166q4 10 4 20q0 9 -4 16l-111 14q-54 0 -85 5q-5 -11 -5 -15q0 -12 85 -27q72 -13 90 -13h26zM381 68l-17 3q-70 -6 -168 -5v-58h11q-6 1 163 18q5 6 11 42zM93 114h-4l-3 -11h4z" />
<glyph unicode="c" horiz-adv-x="583" d="M566 -21q0 -27 -7 -37.5t-31 -14.5l-28 -4q-47 -12 -155 -12q-57 0 -150 46q-99 49 -131 103q-23 39 -28 58q-7 26 -7 130q0 71 72 145q70 71 142 85q102 19 140 19q28 0 92 -10q75 -11 81 -22q0 -10 3 -30.5t3 -30.5q0 -59 -16 -161q-15 -5 -34 -5h-189q-80 0 -122 -4 q-16 -1 -49 -5q-2 -23 7 -47l260 15q5 -1 20 -1h27q58 2 82 -10q12 -55 16 -121q2 -34 2 -86z" />
<glyph unicode="d" horiz-adv-x="666" d="M656 152q0 -152 -136 -228q-105 -59 -251 -59q-34 0 -101 10q-74 12 -97 23q-2 35 -8 110l-27 326v79q0 38 18 38q602 0 602 -299zM472 160q-173 10 -297 15q-2 -11 -2 -25q0 -15 2 -35l243 -29q15 0 53 -5q-3 15 -1 38q3 30 2 41z" />
<glyph unicode="e" horiz-adv-x="620" d="M608 411q0 -96 -6 -150q-1 -8 -22 -8l-233 21l-82 3q-47 2 -105 -9q1 -8 6 -25q6 0 18 -1t18 -1q40 0 270 -6q0 19 1 -18t1 -58q-6 -4 -20 -8l-224 -2l-66 -10q-1 -1 -1 -2q0 -2 2 -4t6 -3q9 -2 58 -4q134 -6 144 -5q32 3 108 0q71 -3 97 -7q0 -2 1.5 -7t1.5 -8 q0 -23 -40 -247q-2 -13 -14 -13t-66 11q-59 12 -75 14q-362 41 -362 309q0 119 90 198q79 71 204 90q19 5 40 9q25 5 31 5h145q42 0 58 -12t16 -52z" />
<glyph unicode="f" horiz-adv-x="586" d="M586 282q-9 -8 -22 -8q46 0 -19 4q-57 4 -151 9q-97 4 -127 4h-67q-35 0 -40 -6q0 -19 6 -54q50 7 142 13l156 11q8 -8 8 -13q0 -3 -4.5 -15t-4.5 -17q-8 -103 -8 -92q-22 -8 -73 -11q-59 -4 -81 -9l82 -184q-6 -15 -37 -15h-265q-33 0 -40 11v114q1 9 5 48q3 25 6 71 q6 83 15 129q15 80 48 137q26 46 133 85q29 11 138 22q95 10 126 10q10 0 39 -8q11 -44 20 -118q12 -103 15 -118z" />
<glyph unicode="g" horiz-adv-x="640" d="M644 -83q-47 -40 -107 -95h-14q-5 10 -30 71q-15 38 -23 38l-117 -17q-17 2 -66 2q-107 0 -179 55q-81 60 -81 164q0 162 121 290t282 128q36 0 90 -6q73 -8 73 -21q0 -2 -6 -78l-6 -80q0 -3 5 -57l5 -57q0 -3 -3.5 -6.5l-4.5 -4.5h-153q-3 0 -63 -3l-63 -4 q-97 0 -142 -14v-28l355 -11q54 -2 56 -14l36 -116q35 -113 35 -136z" />
<glyph unicode="h" horiz-adv-x="727" d="M709 28q0 -122 -25 -145q-4 0 -14 -1.5t-14 -1.5q-7 0 -21 -2.5t-21 -2.5l-253 -7q-21 -1 -28 24q-5 18 -2 52q3 53 3 46v65q-3 4 -16 4l-126 -14l-4 -2q6 -61 6 -104q0 -46 -18 -56q-11 -6 -71 -6q-3 1 -20 1h-29q-17 94 -17 209v332q10 4 78 15q65 10 71 10 q20 0 29 -72q13 -100 15 -106q58 18 166 49q21 3 31 5q20 5 28 12q4 15 4 37v19q-1 25 -1 19q0 49 47 49q201 0 195 -45q-11 -83 -11 -170q0 -46 9 -137t9 -76z" />
<glyph unicode="i" horiz-adv-x="448" d="M426 526q0 -69 -117 -198q-68 -75 -86 -75q-3 0 -15 9q-15 11 -16 12q-47 21 -106 81q-67 68 -67 110v52q0 40 30.5 81.5t69.5 41.5q37 0 66 -25q17 -14 46 -55q16 18 43.5 35.5t48.5 17.5q41 0 70 -23q33 -24 33 -64zM445 -153q0 -13 -17 -13q-3 0 -52 3l-53 4l-158 10 q-96 6 -124 17q10 120 21 250q9 103 23 103q25 -9 32 -9l158 -3q12 0 36.5 2.5t35.5 2.5q3 0 10 1t10 1q31 0 47 -5q31 -262 31 -364z" />
<glyph unicode="j" horiz-adv-x="594" d="M576 63q0 -32 -8 -73q-6 -32 -55 -77t-80 -45q-3 0 -12.5 -2.5t-13.5 -2.5t-13 -1t-14 -1l-226 7q-6 0 -38 6q-25 5 -69 12q-13 24 -11 64l8 165q1 30 12 36q7 5 40 5h215q11 0 67 5q12 27 11.5 88t10.5 85q40 16 139 16q14 0 18 -58q1 -33 6 -98q13 -123 13 -131z" />
<glyph unicode="k" horiz-adv-x="657" d="M646 -88l-168 -27q-9 6 -10 44q0 33 -14 33q-130 0 -280 -14q0 -10 3 -31l2 -21v-23q-33 0 -64 -1q-30 -7 -33 -7q-21 0 -21 15q0 8 9 18q-8 9 -10 35l-4 50l-3 324q-1 55 -9 114q5 6 9 6q3 0 6.5 -2.5t5.5 -2.5q12 2 75 15q16 -23 23 -70q3 -25 11 -76h59q6 0 95 11 l91 11q0 22 1.5 66.5t1.5 66.5q19 8 27 11q20 7 39 8q43 17 75 22q6 -4 12 -15q16 -73 16 -138q0 -36 -35 -83q-28 -38 -65 -67q58 -15 105 -66q50 -54 50 -111v-95z" />
<glyph unicode="l" horiz-adv-x="578" d="M583 -54q-3 -5 -44 -15q-46 -12 -80 -12l-371 -46h-38v507q4 3 36.5 8t41.5 5q-3 0 30 -3q6 -6 7 -44q0 -21 1 -63q1 -14 -1 -36l-3 -27v-16q4 -5 6 -5q-55 0 32 13q71 11 195 26q118 13 137 13q11 0 17 -1q11 -67 18 -144q5 -52 16 -160z" />
<glyph unicode="m" horiz-adv-x="817" d="M801 99q0 -24 -3 -71.5t-3 -71.5q0 -35 -2 -47q-6 -34 -28 -34q-91 3 -116 3q-7 12 -4 37q1 7 -1 86l-2 84v69q0 38 -6 68q-2 2 -13 2q-38 -2 -47 -2q3 -57 12 -198l8 -122q0 -5 -5.5 -11t-11.5 -6t-19.5 -1.5t-20.5 -1.5q-3 0 -142 -9l-142 -8q-16 0 -27 4 q-15 210 -15 230v70q0 26 -7 51q-19 -1 -31 -8q-1 -24 1 -73q3 -52 3 -42v-81q0 -67 -6 -104q-3 -20 -27 -20q-18 0 -52.5 5t-51.5 5q8 191 70 476q2 11 14 9q64 35 78 41q37 16 71 16q55 0 94 -48q30 -37 61 -117q18 65 65.5 105.5t113.5 40.5q192 0 192 -263v-63z" />
<glyph unicode="n" horiz-adv-x="681" d="M666 60q3 -61 -12 -111q-22 -72 -91 -92l-60 -18q-30 -8 -82 -8q-63 0 -105 28q-37 24 -75 80q-29 43 -40 93.5t-21 100.5q-1 5 -3 37q-1 22 -11 32q-9 -6 -9 -16l20 -225q0 -3 -1.5 -8t-1.5 -7q-6 -1 -57 -11q-46 -9 -49 -9q-2 0 -5 1.5t-5 1.5q-1 17 -8 68q-6 42 -6 68 q0 159 35 239q58 133 219 133q116 0 178 -132q45 -97 44 -204q-1 -72 7 -100q28 0 33.5 4.5t5.5 30.5q0 20 -4 53q-4 40 -5 53q-3 51 -13 114l-19 117q28 9 83 28q31 11 25 11h13z" />
<glyph unicode="o" horiz-adv-x="691" d="M680 143q0 -127 -81.5 -203.5t-209.5 -76.5q-3 0 -38 1l-39 1q-43 0 -120.5 34t-108.5 66q-44 45 -44 124q0 83 42 165q51 100 140 118q25 6 83 18q50 10 46 10q128 0 218 -55q112 -69 112 -202zM530 146q-76 17 -265 17q-76 0 -116 -1v-72l373 -6q5 29 8 62z" />
<glyph unicode="p" horiz-adv-x="681" d="M685 267q0 -81 -54 -149q-48 -61 -128 -96q-19 -12 -58 -30q-66 -19 -139 -29l-106 -15q-7 -37 -7 -69q-10 -9 -16 -9q-8 0 -23.5 2.5t-23.5 2.5q-25 0 -62 -5q-24 289 -30 449q0 13 -6 56l-5 40q0 38 152 59q101 14 177 14q121 0 205 -38q124 -56 124 -183zM518 228 q-17 8 -46 7q-8 0 -26.5 -1t-28.5 -1h-267v-55l362 -3q0 25 6 53z" />
<glyph unicode="q" horiz-adv-x="690" d="M680 143q0 -118 -72 -194t-190 -85q1 -2 3 -127q7 -4 68 -26q4 19 4 113q0 7 7.5 12.5t14.5 5.5q5 0 45 -11q48 -13 68 -21q8 -4 8 -19q0 -18 -7 -65t-13 -65q-12 -22 -23 -50q-9 -21 -43 -37.5t-60 -16.5q-3 0 -24 1l-25 1q-36 0 -79 26q-52 32 -62 77q-8 37 -13 154 q-8 2 -7 53q-46 10 -104 37q-65 31 -93 59q-44 45 -44 124q0 83 42 165q51 100 140 118q25 6 83 18q50 10 46 10q129 0 218 -55q112 -69 112 -202zM530 146q-76 17 -265 17q-76 0 -116 -1v-72l373 -6q5 29 8 62z" />
<glyph unicode="r" horiz-adv-x="640" d="M629 312q0 -58 -42 -112q-37 -47 -93 -77q68 -24 89 -57q15 -24 15 -80q0 -39 -7 -59q-2 -9 -3 -18q-4 -12 -10 -14q-36 -10 -108 -10q-17 0 -17 36t-2 75l-122 -6q-72 -4 -119 -17q10 -47 10 -69q0 -17 -14 -17q-3 0 -3.5 1.5t-3.5 1.5q29 0 -39.5 -13.5t-85.5 -13.5 q-21 0 -21 26v166l-5 124v70q0 19 1.5 57.5t1.5 57.5q0 28 -6 35q-4 4 -4 7q0 9 64 27q80 22 163 23l142 2q40 1 106 -21q59 -19 82 -41q31 -29 31 -84zM484 262l-249 3q-40 0 -82 -8q-2 -18 -7 -50q47 -3 112 5l23 2q3 0 29 -1l28 -1q9 0 138 15z" />
<glyph unicode="s" horiz-adv-x="701" d="M690 138q-2 -12 -12 -71q-35 -211 -348 -211q-2 0 -71 -2l-71 -1q-11 0 -53 5q-46 5 -50 8q9 20 23 59q1 12 4 34q27 5 82 10l190 5q41 1 74 15q7 3 7 25q0 9 -16 9q-3 0 -58 -2l-59 -3q-3 0 -50 3l-51 2q-84 0 -136 41q-56 45 -56 127q0 50 8 78q18 63 43 94 q33 41 87 57q29 7 88 22q75 19 105 19q3 0 6 -1.5t5 -1.5q2 2 3 0q1 -5 3 -7q3 1 13.5 6.5t13.5 5.5q11 0 33.5 -2.5t33.5 -2.5q4 0 13 1.5t14 1.5t17 1t18 1t18.5 2.5t18.5 2.5q4 -1 7 -2q8 -4 8 -11q0 -3 2 -43l1 -44q0 -21 -91 -21q13 0 -16 -1t-34 -1q-6 -11 -8 -12 q-3 0 -9.5 2t-9.5 2q-4 0 -15.5 -4.5t-15.5 -4.5q10 0 -10 6t-28 6q-34 0 -82 -12q2 -20 6 -22h14q9 0 28 2.5t28 2.5h92l7 5q119 -23 163 -48q73 -41 73 -130z" />
<glyph unicode="t" horiz-adv-x="610" d="M605 314q0 -8 -10 -10q-44 -10 -122 -10q-10 0 -23 -4q3 -22 32 -191q26 -152 26 -162q0 -13 -72 -23q-58 -8 -101 -9q-33 -1 -108 -8q-70 -7 -107 -7q-14 0 -13 14l31 370q1 17 -50 17q14 0 -17.5 -1t-41.5 -1q0 2 -1 5.5t-1 5.5t7 42q8 45 13 56q18 -2 70 -2 q91 0 187 7l103 7q3 0 48 -3l47 -4l12 2q9 0 45 -7q42 -8 46 -15v-69z" />
<glyph unicode="u" horiz-adv-x="622" d="M605 130q0 -257 -187 -257q-11 0 -33 -2.5t-33 -2.5q-111 0 -187 35q-114 52 -114 172v70q0 29 9 119q12 117 24 117q2 0 8 -4.5t9 -5.5q148 -12 206 -12h80v-287q0 7 -1 -26v-25q1 -12 6 -32h32q21 2 29 13v143q0 17 -7 96q-8 86 -13 115q15 13 29 13q56 0 111 -20 q10 -4 13 -47q1 -8 6 -37l1 -7q2 -32 9 -96z" />
<glyph unicode="v" horiz-adv-x="673" d="M695 334q-1 7 -37 -100l-54 -171q-38 -120 -84 -214q-12 4 -16 14q-15 -5 -46 -5q-24 0 -27 4q-18 21 -86 99q-92 102 -323 363v15q11 6 18 6l185 2q16 0 51.5 8.5t53.5 8.5q12 0 76 -77q77 -93 108 -119q16 26 32 85t28 81q60 18 93 18h28v-18z" />
<glyph unicode="w" horiz-adv-x="848" d="M833 100q0 -106 -43 -170q-50 -77 -151 -77q-59 0 -110.5 31.5t-76.5 84.5q-13 -59 -60 -93.5t-108 -34.5q-8 0 -25.5 2.5t-26.5 2.5q-44 0 -103 52.5t-72 96.5q-13 41 -16 81q-3 52 -5 64l-7 208q-1 35 2 45t25 13q5 0 86 4q14 -52 21 -174q10 -167 13 -201q36 0 72 1 q17 5 13 50l-26 326q-1 13 5 21l149 11h77q10 0 29 2.5t29 2.5q3 0 9.5 -2.5t8.5 -2.5q14 -64 23 -190l16 -222q2 -2 61 -2q9 23 9 47v75q0 172 11 272q0 6 34 8q10 1 33.5 5.5t34.5 4.5q13 0 28 -48q10 -33 13 -48q28 -162 28 -246z" />
<glyph unicode="x" horiz-adv-x="782" d="M787 -78q-5 -11 -13 -12q-95 -17 -200 -28l-137 -14q-8 0 -15 5q-11 8 -39 37q-23 23 -26 23t-54.5 -38.5t-54.5 -38.5q-4 0 -15 4t-16 4l-129 9q0 1 -1.5 3.5t-1.5 5.5l167 154q-17 24 -62 73q-53 56 -68 74q-19 23 -48 72q-35 59 -50 79q6 13 17 13q6 0 17.5 -2.5 t17.5 -2.5q3 2 14 11q60 6 52 6h152q7 0 20.5 2.5t20.5 2.5q9 0 78 -61q52 -46 82 -75l181 136q9 0 30 3l21 2q26 0 40 -3q0 -1 1.5 -5.5t1.5 -5.5l-177 -220z" />
<glyph unicode="y" horiz-adv-x="756" d="M741 134q0 -11 -5 -38q-5 -30 -6 -41q-4 -63 -65 -90q-23 -10 -109 -25q-5 -10 -4.5 -36.5t-5.5 -34.5q-45 -1 -162 -6l-114 -5q-13 0 -13 13q0 -12 14 82q-3 4 -11 4h-113q-10 0 -37 12q-54 24 -61 87l-2 111q-2 11 0 66q1 44 -8 58l7 3q7 3 11 4q43 3 117 3q39 0 48 -7 q6 -6 8 -32q4 -39 16 -72l304 29q10 -1 61 -5q3 13 1 56q-2 38 2 42q8 11 51 11q56 0 62 -33q2 -12 5 -41q0 -19 4.5 -57.5t4.5 -57.5z" />
<glyph unicode="z" horiz-adv-x="614" d="M598 -4q1 -22 -7 -79q-2 -15 1 -48q-5 -7 -26 -6l-399 10q-15 0 -26 4q-117 12 -117 23q0 13 72 115q68 98 89 118.5t62 62.5q22 23 36 50q-7 3 -29 3q-25 0 -75.5 -4t-75.5 -4q-7 4 -6 35l1 41q0 1 -5.5 8t-5.5 11q0 12 11 13q292 25 347 25l111 -10q26 0 37 -13 q-9 -25 -32 -88q-35 -89 -65 -149l-55 -109q6 -4 21 -4q3 0 44 3l44 2q31 0 48 -10z" />
<glyph unicode="{" horiz-adv-x="368" d="M381 -169q0 -29 -78 -29h-34q-5 1 -31 9q-36 11 -53 31q-8 9 -16 38t-8 43q0 3 -2.5 11t-2.5 11v93q0 88 -85 88q-52 -3 -65 -2q-6 5 -6 13q0 40 9 103q8 51 16 103q0 11 5 29q5 9 60 18q8 2 21 15.5t15 21.5q3 16 3 28t-9 59q-2 13 -10 49v75q-2 63 50 115.5t115 52.5 q15 0 29 -4q3 -5 3 -26q0 -11 4 -33q4 -26 5 -34q-53 -1 -80 -63q-20 -46 -20 -91q0 -31 14.5 -94t14.5 -94t-21 -54.5t-52 -26.5q-19 -43 -19 -53v-9q23 -5 42 -10q15 -4 33.5 -31t18.5 -43v-78q0 -71 6 -85q18 -41 98 -54q4 -1 18 -6q12 -74 12 -86z" />
<glyph unicode="}" horiz-adv-x="383" d="M0 -169q0 -29 78 -29h34q5 1 31 9q36 11 53 31q8 9 16.5 38t8.5 43q0 4 2 11.5t2 10.5v93q0 88 85 88q53 -3 66 -2q5 5 5 13q0 43 -25 206q0 11 -4 29q-5 8 -60 18q-8 1 -21.5 15t-15.5 22q-3 16 -3 28t9 59q2 13 10 49v75q2 63 -50 115.5t-115 52.5q-15 0 -29 -4 q-3 -5 -3 -26q0 -13 -4 -34q-4 -25 -5 -33q54 -1 81 -63q19 -43 19 -91q0 -31 -14 -94t-14 -94t20.5 -54.5t51.5 -26.5q19 -41 19 -53v-9q-15 -3 -42 -10q-14 -5 -33 -32t-19 -42v-78q0 -71 -6 -85q-18 -41 -98 -54l-18 -6q-12 -74 -12 -86z" />
<glyph unicode="~" horiz-adv-x="521" d="M508 486q0 -57 -47.5 -104t-104.5 -47q-37 0 -73 23q-20 13 -51 42q-23 22 -32 22q-14 0 -32.5 -11t-20.5 -24q2 -17 -5 -47q-28 3 -64 -3q-8 7 -14 34q-6 24 -6 38q0 64 37 107.5t100 43.5q42 0 79.5 -40t66.5 -40h19q17 0 30 15.5t13 32.5l-2 17q-2 13 4 17 q17 12 53 22q29 8 38 8q4 0 7.5 -3t4.5 -3v-100z" />
<glyph unicode="&#xa3;" horiz-adv-x="702" d="M707 -26q0 -13 -6 -26q-22 -5 -80 -17q-17 -3 -226 -34q-232 -34 -267 -34q-12 0 -20.5 11.5t-8.5 24.5q0 34 18 77q0 1 33 16.5t43 29.5q8 11 8 23q-1 7 -4 36q-4 34 -5 56q-103 4 -136 4q-21 0 -20 23l3 126q1 33 9 73q2 20 11 53q65 15 118 21q8 11 10 28 q15 99 98 151q74 46 179 46q32 0 143 -13q4 -6 9.5 -35.5t5.5 -38.5q0 -20 -139 -48q-19 -2 -62 -11q-7 -32 -7 -39q0 -9 10 -9q6 0 18.5 1.5t18.5 1.5l150 2q5 0 19 -4t15 -6q10 -14 16 -108q6 -90 5 -105l-2 -26q-2 -30 -2 -40q1 -31 -9 -40q-65 -5 -213 -29q8 -17 8 -27 q0 -11 -7 -20l216 6q26 1 38 -7q12 -54 12 -93z" />
<glyph unicode="&#xa8;" horiz-adv-x="538" d="M516 414q0 -31 -24.5 -52.5t-55.5 -21.5h-18q-27 0 -55.5 29.5t-28.5 56.5t26 52.5t53 25.5q2 0 8 -5.5t9 -5.5q15 -1 46 -9q40 -20 40 -70zM269 432q0 -38 -28.5 -62.5t-66.5 -24.5q-36 0 -64 25t-28 61q0 30 30 58t61 28q35 0 65.5 -25.5t30.5 -59.5z" />
<glyph unicode="&#xb4;" horiz-adv-x="303" d="M324 574q-60 -85 -177 -275h-16q-35 52 -37 53q0 -12 38 108q5 19 15 56.5t21 47.5q25 3 81 12q51 8 54 8q5 0 21 -10z" />
<glyph unicode="&#xc5;" horiz-adv-x="663" d="M452 194q-52 5 -73 5q-97 0 -204 -19q-2 -9 -2 -17t2 -17l277 1v47zM165 449q-1 9 -1 21q0 10 10 110q12 119 22 166q3 14 30 23q22 8 40 8q30 0 82 -5q65 -6 77 -16q9 -6 13 -25q1 -17 3 -28q7 -44 7 -162v-69q52 -48 95 -147q19 -49 60 -146q12 -26 38 -96 q20 -60 20 -68q0 -12 -13 -16q-17 -2 -59 -18t-47 -16q-11 0 -23 33q-9 25 -10 35h-38l-104 -13q-7 0 -21 -1t-21 -1h-74q-5 -20 -15 -50q-4 -11 -63 -11q-3 0 -43 2l-44 3q-5 0 -18 -2.5t-18 -2.5q-3 0 -23 13q5 38 22 111t22 108q27 186 94 260zM346 572v21q-35 -1 -72 -8 q-10 -34 -13 -52q28 -8 50 -8q4 0 12.5 1.5t12.5 1.5q1 5 6 23q4 15 4 21z" />
<glyph unicode="&#xc6;" horiz-adv-x="794" d="M794 -144q-2 0 -9 -4t-10 -4q22 0 -20.5 1.5t-65.5 1.5q-28 5 -155 23q-99 14 -147 38q-71 35 -93 104q-3 10 -13 72q-7 3 -29 3q-34 0 -68 -7q0 -18 -6 -47q-8 -36 -17 -36q-40 0 -60 -3l-20 -2q-30 24 -30 28q0 8 25 127.5t43 194.5q8 33 21 44q1 32 38 70q34 36 67 46 q29 9 73 19q132 18 189 16l177 -5q28 -1 42 -220q-8 -8 -13 -8q-3 0 -8.5 1.5t-8.5 1.5q6 0 -74 7q-91 8 -216 12q-4 -4 -4 -17t4 -16q187 -15 203 -15q2 0 3.5 1t3.5 1q40 0 54.5 -14t14.5 -54q0 -6 -5 -21q-78 -8 -93 -8q-33 0 -80 -3q-59 -4 -62 -9q-4 -22 -4 -35 q0 -3 1 -9.5t1 -9.5q6 -4 23 -4q9 0 25 3q20 3 26 3q180 14 218 14q25 0 32 -20q8 -45 18 -136l3 -84q1 -20 6 -41zM305 202q0 17 -3 41q-28 -1 -58 -1q-29 0 -60 1v-37q0 -9 6 -14q40 4 115 10z" />
<glyph unicode="&#xd8;" horiz-adv-x="757" d="M743 181q0 -169 -141 -251q-107 -62 -267 -62q-2 0 -23 4l-32 6q-7 -11 -36 -37q-30 -29 -37 -29q-6 0 -64 23q-54 21 -70 29q11 20 55 87q-100 96 -104 182q2 2 2 20t-2 53q10 133 136 215q106 69 225 69q17 0 76 -12.5t77 -19.5q16 25 29 44q25 36 32 36q12 0 67 -10 q64 -12 75 -20l-80 -123q82 -74 82 -204zM605 179v15l-133 14l-132 8q-37 2 -71 2q-98 0 -123 -13q-10 -32 -10 -48v-13l454 -36q15 74 15 71z" />
<glyph unicode="&#xe4;" horiz-adv-x="341" />
<glyph unicode="&#xe5;" horiz-adv-x="663" d="M452 194q-52 5 -73 5q-97 0 -204 -19q-2 -9 -2 -17t2 -17l277 1v47zM165 449q-1 9 -1 21q0 10 10 110q12 119 22 166q3 14 30 23q22 8 40 8q30 0 82 -5q65 -6 77 -16q9 -6 13 -25q1 -17 3 -28q7 -44 7 -162v-69q52 -48 95 -147q19 -49 60 -146q12 -26 38 -96 q20 -60 20 -68q0 -12 -13 -16q-17 -2 -59 -18t-47 -16q-11 0 -23 33q-9 25 -10 35h-38l-104 -13q-7 0 -21 -1t-21 -1h-74q-5 -20 -15 -50q-4 -11 -63 -11q-3 0 -43 2l-44 3q-5 0 -18 -2.5t-18 -2.5q-3 0 -23 13q5 38 22 111t22 108q27 186 94 260zM346 572v21q-35 -1 -72 -8 q-10 -34 -13 -52q28 -8 50 -8q4 0 12.5 1.5t12.5 1.5q1 5 6 23q4 15 4 21z" />
<glyph unicode="&#xe6;" horiz-adv-x="794" d="M794 -144q-2 0 -9 -4t-10 -4q22 0 -20.5 1.5t-65.5 1.5q-28 5 -155 23q-99 14 -147 38q-71 35 -93 104q-3 10 -13 72q-7 3 -29 3q-34 0 -68 -7q0 -18 -6 -47q-8 -36 -17 -36q-40 0 -60 -3l-20 -2q-30 24 -30 28q0 8 25 127.5t43 194.5q8 33 21 44q1 32 38 70q34 36 67 46 q29 9 73 19q132 18 189 16l177 -5q28 -1 42 -220q-8 -8 -13 -8q-3 0 -8.5 1.5t-8.5 1.5q6 0 -74 7q-91 8 -216 12q-4 -4 -4 -17t4 -16q187 -15 203 -15q2 0 3.5 1t3.5 1q40 0 54.5 -14t14.5 -54q0 -6 -5 -21q-78 -8 -93 -8q-33 0 -80 -3q-59 -4 -62 -9q-4 -22 -4 -35 q0 -3 1 -9.5t1 -9.5q6 -4 23 -4q9 0 25 3q20 3 26 3q180 14 218 14q25 0 32 -20q8 -45 18 -136l3 -84q1 -20 6 -41zM305 202q0 17 -3 41q-28 -1 -58 -1q-29 0 -60 1v-37q0 -9 6 -14q40 4 115 10z" />
<glyph unicode="&#xf8;" horiz-adv-x="757" d="M743 181q0 -169 -141 -251q-107 -62 -267 -62q-2 0 -23 4l-32 6q-7 -11 -36 -37q-30 -29 -37 -29q-6 0 -64 23q-54 21 -70 29q11 20 55 87q-100 96 -104 182q2 2 2 20t-2 53q10 133 136 215q106 69 225 69q17 0 76 -12.5t77 -19.5q16 25 29 44q25 36 32 36q12 0 67 -10 q64 -12 75 -20l-80 -123q82 -74 82 -204zM605 179v15l-133 14l-132 8q-37 2 -71 2q-98 0 -123 -13q-10 -32 -10 -48v-13l454 -36q15 74 15 71z" />
<glyph unicode="&#x2018;" d="M467 473q0 -54 -27 -99q-6 -10 -36 -34q-33 -27 -47 -27q-13 0 -13 11q0 3 7.5 15.5t8.5 14.5q10 23 10 54q0 4 -1 12t-1 12h-29q-20 0 -35.5 11.5t-15.5 30.5q0 79 97 79q35 0 58.5 -22.5t23.5 -57.5zM242 466q0 -45 -28 -97q-33 -61 -80 -61q-13 0 -13 12q0 10 7.5 31 t7.5 31q-1 5 -7 41q2 -1 -26 -1q-21 0 -41 14q-23 15 -23 35q0 47 40 70q33 19 83 19q2 0 50 -23q13 -6 21.5 -29.5t8.5 -41.5z" />
<glyph unicode="&#x2019;" d="M467 473q0 -54 -27 -99q-6 -10 -36 -34q-33 -27 -47 -27q-13 0 -13 11q0 3 7.5 15.5t8.5 14.5q10 23 10 54q0 4 -1 12t-1 12h-29q-20 0 -35.5 11.5t-15.5 30.5q0 79 97 79q35 0 58.5 -22.5t23.5 -57.5zM242 466q0 -45 -28 -97q-33 -61 -80 -61q-13 0 -13 12q0 10 7.5 31 t7.5 31q-1 5 -7 41q2 -1 -26 -1q-21 0 -41 14q-23 15 -23 35q0 47 40 70q33 19 83 19q2 0 50 -23q13 -6 21.5 -29.5t8.5 -41.5z" />
<glyph unicode="&#x201a;" d="M467 473q0 -54 -27 -99q-6 -10 -36 -34q-33 -27 -47 -27q-13 0 -13 11q0 3 7.5 15.5t8.5 14.5q10 23 10 54q0 4 -1 12t-1 12h-29q-20 0 -35.5 11.5t-15.5 30.5q0 79 97 79q35 0 58.5 -22.5t23.5 -57.5zM242 466q0 -45 -28 -97q-33 -61 -80 -61q-13 0 -13 12q0 10 7.5 31 t7.5 31q-1 5 -7 41q2 -1 -26 -1q-21 0 -41 14q-23 15 -23 35q0 47 40 70q33 19 83 19q2 0 50 -23q13 -6 21.5 -29.5t8.5 -41.5z" />
<glyph unicode="&#x201b;" d="M467 473q0 -54 -27 -99q-6 -10 -36 -34q-33 -27 -47 -27q-13 0 -13 11q0 3 7.5 15.5t8.5 14.5q10 23 10 54q0 4 -1 12t-1 12h-29q-20 0 -35.5 11.5t-15.5 30.5q0 79 97 79q35 0 58.5 -22.5t23.5 -57.5zM242 466q0 -45 -28 -97q-33 -61 -80 -61q-13 0 -13 12q0 10 7.5 31 t7.5 31q-1 5 -7 41q2 -1 -26 -1q-21 0 -41 14q-23 15 -23 35q0 47 40 70q33 19 83 19q2 0 50 -23q13 -6 21.5 -29.5t8.5 -41.5z" />
<glyph unicode="&#x201c;" horiz-adv-x="436" d="M39 473q0 -54 27 -99q6 -10 36 -34q33 -27 47 -27q13 0 13 11q0 3 -7.5 15.5t-8.5 14.5q-10 23 -10 54q0 4 1 12t1 12h29q20 0 35.5 11.5t15.5 30.5q0 79 -97 79q-34 0 -58 -23t-24 -57zM264 466q0 -45 28 -97q33 -61 80 -61q13 0 13 12q0 10 -7.5 31t-7.5 31q1 5 7 41 q-2 -1 26 -1q21 0 42.5 14.5t21.5 34.5q0 47 -40 70q-33 19 -83 19q-2 0 -50 -23q-13 -6 -21.5 -29.5t-8.5 -41.5z" />
<glyph unicode="&#x201d;" d="M467 473q0 -54 -27 -99q-6 -10 -36 -34q-33 -27 -47 -27q-13 0 -13 11q0 3 7.5 15.5t8.5 14.5q10 23 10 54q0 4 -1 12t-1 12h-29q-20 0 -35.5 11.5t-15.5 30.5q0 79 97 79q35 0 58.5 -22.5t23.5 -57.5zM242 466q0 -45 -28 -97q-33 -61 -80 -61q-13 0 -13 12q0 10 7.5 31 t7.5 31q-1 5 -7 41q2 -1 -26 -1q-21 0 -41 14q-23 15 -23 35q0 47 40 70q33 19 83 19q2 0 50 -23q13 -6 21.5 -29.5t8.5 -41.5z" />
<glyph horiz-adv-x="500" />
<glyph horiz-adv-x="500" />
</font>
</defs>
</svg>
